<mxfile host="www.draw.io" modified="2019-10-31T12:30:19.096Z" agent="Mozilla/5.0 (Macintosh; Intel Mac OS X 10_14_6) AppleWebKit/605.1.15 (KHTML, like Gecko) Version/12.1.2 Safari/605.1.15" etag="56bO4lfpoi3Ac5ObPKJx" version="12.1.9" type="github" pages="2">
  <diagram id="dwvzJ9ZSr5rlT99AuMPi" name="dataX类图-1">
    <mxGraphModel dx="2115" dy="662" grid="1" gridSize="10" guides="1" tooltips="1" connect="1" arrows="1" fold="1" page="1" pageScale="1" pageWidth="1169" pageHeight="827" math="0" shadow="0">
      <root>
        <mxCell id="0"/>
        <mxCell id="1" parent="0"/>
        <mxCell id="icY077CcPCAfV6TuevYq-1" value="BaseObject" style="html=1;fontStyle=1" parent="1" vertex="1">
          <mxGeometry x="505" y="160" width="110" height="50" as="geometry"/>
        </mxCell>
        <mxCell id="icY077CcPCAfV6TuevYq-3" value="&lt;p style=&quot;margin: 0px ; margin-top: 4px ; text-align: center&quot;&gt;&amp;lt;&amp;lt;abstract&amp;gt;&amp;gt;&lt;/p&gt;&lt;p style=&quot;margin: 0px ; margin-top: 4px ; text-align: center&quot;&gt;&lt;b&gt;Writer&lt;/b&gt;&lt;/p&gt;&lt;hr size=&quot;1&quot;&gt;&lt;p style=&quot;margin: 0px ; margin-left: 4px&quot;&gt;+ Job: class&lt;/p&gt;&lt;p style=&quot;margin: 0px ; margin-left: 4px&quot;&gt;+ Task:class&lt;/p&gt;&lt;p style=&quot;margin: 0px ; margin-left: 4px&quot;&gt;&lt;br&gt;&lt;/p&gt;" style="verticalAlign=top;align=left;overflow=fill;fontSize=12;fontFamily=Helvetica;html=1;" parent="1" vertex="1">
          <mxGeometry x="750" y="356" width="160" height="110" as="geometry"/>
        </mxCell>
        <mxCell id="icY077CcPCAfV6TuevYq-4" value="&lt;p style=&quot;margin: 0px ; margin-top: 4px ; text-align: center&quot;&gt;&amp;lt;&amp;lt;abstract&amp;gt;&amp;gt;&lt;/p&gt;&lt;p style=&quot;margin: 0px ; margin-top: 4px ; text-align: center&quot;&gt;&lt;b&gt;Reader&lt;/b&gt;&lt;/p&gt;&lt;hr size=&quot;1&quot;&gt;&lt;p style=&quot;margin: 0px ; margin-left: 4px&quot;&gt;+ Job: class&lt;/p&gt;&lt;p style=&quot;margin: 0px ; margin-left: 4px&quot;&gt;+ Task:class&lt;/p&gt;&lt;p style=&quot;margin: 0px ; margin-left: 4px&quot;&gt;&lt;br&gt;&lt;/p&gt;" style="verticalAlign=top;align=left;overflow=fill;fontSize=12;fontFamily=Helvetica;html=1;" parent="1" vertex="1">
          <mxGeometry x="485" y="356" width="160" height="120" as="geometry"/>
        </mxCell>
        <mxCell id="icY077CcPCAfV6TuevYq-5" value="Extends" style="endArrow=block;endSize=16;endFill=0;html=1;entryX=0.5;entryY=1;entryDx=0;entryDy=0;exitX=0.5;exitY=0;exitDx=0;exitDy=0;" parent="1" source="icY077CcPCAfV6TuevYq-4" target="icY077CcPCAfV6TuevYq-1" edge="1">
          <mxGeometry width="160" relative="1" as="geometry">
            <mxPoint x="210" y="596" as="sourcePoint"/>
            <mxPoint x="370" y="596" as="targetPoint"/>
          </mxGeometry>
        </mxCell>
        <mxCell id="icY077CcPCAfV6TuevYq-6" value="Extends" style="endArrow=block;endSize=16;endFill=0;html=1;entryX=0.5;entryY=1;entryDx=0;entryDy=0;exitX=0.463;exitY=0;exitDx=0;exitDy=0;exitPerimeter=0;" parent="1" source="icY077CcPCAfV6TuevYq-3" target="icY077CcPCAfV6TuevYq-1" edge="1">
          <mxGeometry width="160" relative="1" as="geometry">
            <mxPoint x="590" y="306" as="sourcePoint"/>
            <mxPoint x="785" y="196" as="targetPoint"/>
          </mxGeometry>
        </mxCell>
        <mxCell id="icY077CcPCAfV6TuevYq-7" value="&lt;p style=&quot;margin: 0px ; margin-top: 4px ; text-align: center&quot;&gt;&amp;lt;&amp;lt;abstract&amp;gt;&amp;gt;&lt;br&gt;&lt;b&gt;AbstractJobPlugin&lt;/b&gt;&lt;/p&gt;" style="verticalAlign=top;align=left;overflow=fill;fontSize=12;fontFamily=Helvetica;html=1;" parent="1" vertex="1">
          <mxGeometry x="-5" y="660" width="180" height="70" as="geometry"/>
        </mxCell>
        <mxCell id="icY077CcPCAfV6TuevYq-11" value="&lt;p style=&quot;margin: 0px ; margin-top: 4px ; text-align: center&quot;&gt;&amp;lt;&amp;lt;abstract&amp;gt;&amp;gt;&lt;/p&gt;&lt;p style=&quot;margin: 0px ; margin-top: 4px ; text-align: center&quot;&gt;&lt;b&gt;AbstractTaskPlugin&lt;/b&gt;&lt;/p&gt;" style="verticalAlign=top;align=left;overflow=fill;fontSize=12;fontFamily=Helvetica;html=1;" parent="1" vertex="1">
          <mxGeometry x="-195" y="660" width="180" height="70" as="geometry"/>
        </mxCell>
        <mxCell id="icY077CcPCAfV6TuevYq-15" value="Extends" style="endArrow=block;endSize=16;endFill=0;html=1;entryX=0;entryY=0.5;entryDx=0;entryDy=0;exitX=0.5;exitY=0;exitDx=0;exitDy=0;" parent="1" source="icY077CcPCAfV6TuevYq-18" target="icY077CcPCAfV6TuevYq-1" edge="1">
          <mxGeometry width="160" relative="1" as="geometry">
            <mxPoint x="560" y="366" as="sourcePoint"/>
            <mxPoint x="570" y="346" as="targetPoint"/>
            <Array as="points">
              <mxPoint x="480" y="200"/>
            </Array>
          </mxGeometry>
        </mxCell>
        <mxCell id="icY077CcPCAfV6TuevYq-16" value="Extends" style="endArrow=block;endSize=16;endFill=0;html=1;entryX=0.5;entryY=1;entryDx=0;entryDy=0;exitX=0.5;exitY=0;exitDx=0;exitDy=0;" parent="1" source="icY077CcPCAfV6TuevYq-7" target="icY077CcPCAfV6TuevYq-18" edge="1">
          <mxGeometry width="160" relative="1" as="geometry">
            <mxPoint x="-275" y="610" as="sourcePoint"/>
            <mxPoint x="5" y="380" as="targetPoint"/>
          </mxGeometry>
        </mxCell>
        <mxCell id="icY077CcPCAfV6TuevYq-17" value="Extends" style="endArrow=block;endSize=16;endFill=0;html=1;entryX=0.5;entryY=1;entryDx=0;entryDy=0;exitX=0.5;exitY=0;exitDx=0;exitDy=0;" parent="1" source="icY077CcPCAfV6TuevYq-11" target="icY077CcPCAfV6TuevYq-18" edge="1">
          <mxGeometry width="160" relative="1" as="geometry">
            <mxPoint x="5" y="520" as="sourcePoint"/>
            <mxPoint x="5" y="380" as="targetPoint"/>
          </mxGeometry>
        </mxCell>
        <mxCell id="icY077CcPCAfV6TuevYq-18" value="&lt;p style=&quot;margin: 0px ; margin-top: 4px ; text-align: center&quot;&gt;&amp;lt;&amp;lt;abstract&amp;gt;&amp;gt;&lt;/p&gt;&lt;p style=&quot;margin: 0px ; margin-top: 4px ; text-align: center&quot;&gt;&lt;b&gt;AbstractPlugin&lt;/b&gt;&lt;/p&gt;&lt;hr size=&quot;1&quot;&gt;&lt;p style=&quot;margin: 0px ; margin-left: 4px&quot;&gt;+ pluginJobConf:Configuration&lt;/p&gt;&lt;p style=&quot;margin: 0px ; margin-left: 4px&quot;&gt;+ pluginConf:Configuration&lt;/p&gt;&lt;p style=&quot;margin: 0px ; margin-left: 4px&quot;&gt;+&amp;nbsp;peerPluginJobConf:Configuration&lt;/p&gt;&lt;p style=&quot;margin: 0px ; margin-left: 4px&quot;&gt;+&amp;nbsp;peerPluginName:String&lt;/p&gt;" style="verticalAlign=top;align=left;overflow=fill;fontSize=12;fontFamily=Helvetica;html=1;" parent="1" vertex="1">
          <mxGeometry x="-145" y="320" width="300" height="160" as="geometry"/>
        </mxCell>
        <mxCell id="icY077CcPCAfV6TuevYq-19" value="&lt;p style=&quot;margin: 0px ; margin-top: 4px ; text-align: center&quot;&gt;&lt;b&gt;MysqlReader&lt;/b&gt;&lt;/p&gt;&lt;hr size=&quot;1&quot;&gt;&lt;p style=&quot;margin: 0px ; margin-left: 4px&quot;&gt;+ Job:Reader.Job&lt;/p&gt;&lt;p style=&quot;margin: 0px ; margin-left: 4px&quot;&gt;+ Task:Reader.Task&lt;/p&gt;" style="verticalAlign=top;align=left;overflow=fill;fontSize=12;fontFamily=Helvetica;html=1;" parent="1" vertex="1">
          <mxGeometry x="475" y="559" width="180" height="90" as="geometry"/>
        </mxCell>
        <mxCell id="icY077CcPCAfV6TuevYq-20" value="Extends" style="endArrow=block;endSize=16;endFill=0;html=1;entryX=0.5;entryY=1;entryDx=0;entryDy=0;exitX=0.5;exitY=0;exitDx=0;exitDy=0;" parent="1" source="icY077CcPCAfV6TuevYq-19" target="icY077CcPCAfV6TuevYq-4" edge="1">
          <mxGeometry width="160" relative="1" as="geometry">
            <mxPoint x="180" y="516" as="sourcePoint"/>
            <mxPoint x="340" y="516" as="targetPoint"/>
          </mxGeometry>
        </mxCell>
        <mxCell id="icY077CcPCAfV6TuevYq-21" value="&lt;p style=&quot;margin: 0px ; margin-top: 4px ; text-align: center&quot;&gt;&lt;b&gt;HdfsWriter&lt;/b&gt;&lt;/p&gt;&lt;hr size=&quot;1&quot;&gt;&lt;p style=&quot;margin: 0px ; margin-left: 4px&quot;&gt;+ Job:Writer.Job&lt;/p&gt;&lt;p style=&quot;margin: 0px ; margin-left: 4px&quot;&gt;+ Task:Writer.Task&lt;/p&gt;" style="verticalAlign=top;align=left;overflow=fill;fontSize=12;fontFamily=Helvetica;html=1;" parent="1" vertex="1">
          <mxGeometry x="740" y="559" width="180" height="90" as="geometry"/>
        </mxCell>
        <mxCell id="icY077CcPCAfV6TuevYq-23" value="Extends" style="endArrow=block;endSize=16;endFill=0;html=1;entryX=0.5;entryY=1;entryDx=0;entryDy=0;exitX=0.5;exitY=0;exitDx=0;exitDy=0;" parent="1" source="icY077CcPCAfV6TuevYq-21" target="icY077CcPCAfV6TuevYq-3" edge="1">
          <mxGeometry width="160" relative="1" as="geometry">
            <mxPoint x="760" y="526" as="sourcePoint"/>
            <mxPoint x="920" y="526" as="targetPoint"/>
            <Array as="points"/>
          </mxGeometry>
        </mxCell>
        <mxCell id="icY077CcPCAfV6TuevYq-26" value="&lt;p style=&quot;margin: 0px ; margin-top: 4px ; text-align: center&quot;&gt;&lt;i&gt;&amp;lt;&amp;lt;Interface&amp;gt;&amp;gt;&lt;/i&gt;&lt;br&gt;&lt;b&gt;Pluginable&lt;/b&gt;&lt;/p&gt;&lt;p style=&quot;margin: 0px ; margin-left: 4px&quot;&gt;&lt;br&gt;&lt;/p&gt;" style="verticalAlign=top;align=left;overflow=fill;fontSize=12;fontFamily=Helvetica;html=1;" parent="1" vertex="1">
          <mxGeometry x="-90" y="110" width="190" height="60" as="geometry"/>
        </mxCell>
        <mxCell id="icY077CcPCAfV6TuevYq-27" value="" style="endArrow=block;dashed=1;endFill=0;endSize=12;html=1;entryX=0.5;entryY=1;entryDx=0;entryDy=0;exitX=0.5;exitY=0;exitDx=0;exitDy=0;" parent="1" source="icY077CcPCAfV6TuevYq-18" target="icY077CcPCAfV6TuevYq-26" edge="1">
          <mxGeometry width="160" relative="1" as="geometry">
            <mxPoint x="560" y="160" as="sourcePoint"/>
            <mxPoint x="510" y="120" as="targetPoint"/>
          </mxGeometry>
        </mxCell>
        <mxCell id="icY077CcPCAfV6TuevYq-29" value="&lt;p style=&quot;margin: 0px ; margin-top: 4px ; text-align: center&quot;&gt;&lt;b&gt;TxtFileReader&lt;/b&gt;&lt;/p&gt;&lt;hr size=&quot;1&quot;&gt;&lt;p style=&quot;margin: 0px ; margin-left: 4px&quot;&gt;+ Job:Reader.Job&lt;/p&gt;&lt;p style=&quot;margin: 0px ; margin-left: 4px&quot;&gt;+ Task:Reader.Task&lt;/p&gt;" style="verticalAlign=top;align=left;overflow=fill;fontSize=12;fontFamily=Helvetica;html=1;" parent="1" vertex="1">
          <mxGeometry x="285" y="559" width="180" height="90" as="geometry"/>
        </mxCell>
        <mxCell id="icY077CcPCAfV6TuevYq-30" value="Extends" style="endArrow=block;endSize=16;endFill=0;html=1;exitX=0.456;exitY=-0.022;exitDx=0;exitDy=0;exitPerimeter=0;entryX=0.5;entryY=1;entryDx=0;entryDy=0;" parent="1" source="icY077CcPCAfV6TuevYq-29" target="icY077CcPCAfV6TuevYq-4" edge="1">
          <mxGeometry width="160" relative="1" as="geometry">
            <mxPoint x="40" y="500" as="sourcePoint"/>
            <mxPoint x="270" y="480" as="targetPoint"/>
          </mxGeometry>
        </mxCell>
        <mxCell id="icY077CcPCAfV6TuevYq-31" value="&lt;p style=&quot;margin: 0px ; margin-top: 4px ; text-align: center&quot;&gt;&lt;b&gt;TxtFileWriter&lt;/b&gt;&lt;/p&gt;&lt;hr size=&quot;1&quot;&gt;&lt;p style=&quot;margin: 0px ; margin-left: 4px&quot;&gt;+ Job:Writer.Job&lt;/p&gt;&lt;p style=&quot;margin: 0px ; margin-left: 4px&quot;&gt;+ Task:Writer.Task&lt;/p&gt;" style="verticalAlign=top;align=left;overflow=fill;fontSize=12;fontFamily=Helvetica;html=1;" parent="1" vertex="1">
          <mxGeometry x="930" y="559" width="180" height="90" as="geometry"/>
        </mxCell>
        <mxCell id="icY077CcPCAfV6TuevYq-32" value="Extends" style="endArrow=block;endSize=16;endFill=0;html=1;entryX=0.5;entryY=1;entryDx=0;entryDy=0;exitX=0.5;exitY=0;exitDx=0;exitDy=0;" parent="1" source="icY077CcPCAfV6TuevYq-31" target="icY077CcPCAfV6TuevYq-3" edge="1">
          <mxGeometry width="160" relative="1" as="geometry">
            <mxPoint x="950" y="500" as="sourcePoint"/>
            <mxPoint x="950" y="407" as="targetPoint"/>
            <Array as="points"/>
          </mxGeometry>
        </mxCell>
      </root>
    </mxGraphModel>
  </diagram>
  <diagram id="i8oq0F-yW_4LkSNv0MJ2" name="dataX-框架类图">
    <mxGraphModel dx="946" dy="662" grid="1" gridSize="10" guides="1" tooltips="1" connect="1" arrows="1" fold="1" page="1" pageScale="1" pageWidth="1654" pageHeight="1169" math="0" shadow="0">
      <root>
        <mxCell id="AaScqXBLyXnoLoBDGlaj-0"/>
        <mxCell id="AaScqXBLyXnoLoBDGlaj-1" parent="AaScqXBLyXnoLoBDGlaj-0"/>
        <mxCell id="AaScqXBLyXnoLoBDGlaj-3" value="&lt;p style=&quot;margin: 0px ; margin-top: 4px ; text-align: center&quot;&gt;&lt;b&gt;&amp;lt;&amp;lt;abstract&amp;gt;&amp;gt;&lt;/b&gt;&lt;/p&gt;&lt;p style=&quot;margin: 0px ; margin-top: 4px ; text-align: center&quot;&gt;&lt;b&gt;AbstractContainer&lt;br&gt;&lt;/b&gt;&lt;/p&gt;&lt;hr size=&quot;1&quot;&gt;&lt;div style=&quot;height: 2px&quot;&gt;&lt;/div&gt;" style="verticalAlign=top;align=left;overflow=fill;fontSize=12;fontFamily=Helvetica;html=1;" parent="AaScqXBLyXnoLoBDGlaj-1" vertex="1">
          <mxGeometry x="720" y="255" width="170" height="70" as="geometry"/>
        </mxCell>
        <mxCell id="041IJBFGgGHFrr1epc6V-0" value="&lt;p style=&quot;margin: 0px ; margin-top: 4px ; text-align: center&quot;&gt;&lt;b&gt;JobContainer&lt;/b&gt;&lt;/p&gt;" style="verticalAlign=top;align=left;overflow=fill;fontSize=12;fontFamily=Helvetica;html=1;" parent="AaScqXBLyXnoLoBDGlaj-1" vertex="1">
          <mxGeometry x="650" y="432.5" width="140" height="42" as="geometry"/>
        </mxCell>
        <mxCell id="041IJBFGgGHFrr1epc6V-1" value="&lt;p style=&quot;margin: 0px ; margin-top: 4px ; text-align: center&quot;&gt;&lt;b&gt;TaskGroupContainer&lt;/b&gt;&lt;/p&gt;" style="verticalAlign=top;align=left;overflow=fill;fontSize=12;fontFamily=Helvetica;html=1;" parent="AaScqXBLyXnoLoBDGlaj-1" vertex="1">
          <mxGeometry x="860" y="432.5" width="180" height="42" as="geometry"/>
        </mxCell>
        <mxCell id="041IJBFGgGHFrr1epc6V-2" value="Extends" style="endArrow=block;endSize=16;endFill=0;html=1;entryX=0.5;entryY=1;entryDx=0;entryDy=0;exitX=0.5;exitY=0;exitDx=0;exitDy=0;" parent="AaScqXBLyXnoLoBDGlaj-1" source="041IJBFGgGHFrr1epc6V-0" target="AaScqXBLyXnoLoBDGlaj-3" edge="1">
          <mxGeometry width="160" relative="1" as="geometry">
            <mxPoint x="610" y="435" as="sourcePoint"/>
            <mxPoint x="770" y="435" as="targetPoint"/>
          </mxGeometry>
        </mxCell>
        <mxCell id="041IJBFGgGHFrr1epc6V-3" value="Extends" style="endArrow=block;endSize=16;endFill=0;html=1;entryX=0.5;entryY=1;entryDx=0;entryDy=0;exitX=0.5;exitY=0;exitDx=0;exitDy=0;" parent="AaScqXBLyXnoLoBDGlaj-1" source="041IJBFGgGHFrr1epc6V-1" target="AaScqXBLyXnoLoBDGlaj-3" edge="1">
          <mxGeometry width="160" relative="1" as="geometry">
            <mxPoint x="960" y="425" as="sourcePoint"/>
            <mxPoint x="1120" y="425" as="targetPoint"/>
          </mxGeometry>
        </mxCell>
        <mxCell id="041IJBFGgGHFrr1epc6V-5" value="Use" style="endArrow=open;endSize=12;dashed=1;html=1;entryX=0;entryY=0.5;entryDx=0;entryDy=0;exitX=1;exitY=0.5;exitDx=0;exitDy=0;" parent="AaScqXBLyXnoLoBDGlaj-1" source="041IJBFGgGHFrr1epc6V-6" target="AaScqXBLyXnoLoBDGlaj-3" edge="1">
          <mxGeometry width="160" relative="1" as="geometry">
            <mxPoint x="600" y="310" as="sourcePoint"/>
            <mxPoint x="710" y="365" as="targetPoint"/>
          </mxGeometry>
        </mxCell>
        <mxCell id="041IJBFGgGHFrr1epc6V-6" value="&lt;p style=&quot;margin: 0px ; margin-top: 4px ; text-align: center&quot;&gt;&lt;b&gt;Engine&lt;/b&gt;&lt;/p&gt;&lt;hr size=&quot;1&quot;&gt;&lt;p style=&quot;margin: 0px ; margin-left: 4px&quot;&gt;+ main(): void&lt;/p&gt;&lt;p style=&quot;margin: 0px ; margin-left: 4px&quot;&gt;+Engine.entry()&lt;/p&gt;&lt;p style=&quot;margin: 0px ; margin-left: 4px&quot;&gt;+engine.start()&lt;/p&gt;&lt;p style=&quot;margin: 0px ; margin-left: 4px&quot;&gt;+LoadUtil.bind()&lt;/p&gt;&lt;p style=&quot;margin: 0px ; margin-left: 4px&quot;&gt;+container.start()&lt;/p&gt;" style="verticalAlign=top;align=left;overflow=fill;fontSize=12;fontFamily=Helvetica;html=1;" parent="AaScqXBLyXnoLoBDGlaj-1" vertex="1">
          <mxGeometry x="430" y="220" width="160" height="150" as="geometry"/>
        </mxCell>
        <mxCell id="041IJBFGgGHFrr1epc6V-9" value="&lt;h1&gt;入口类&lt;/h1&gt;&lt;h1&gt;&lt;span style=&quot;font-size: 12px ; font-weight: normal&quot;&gt;Engine是DataX入口类，该类负责初始化Job或者Task的运行容器，并运行插件的Job或者Task逻辑&lt;/span&gt;&lt;/h1&gt;" style="text;html=1;strokeColor=none;fillColor=none;spacing=5;spacingTop=-20;whiteSpace=wrap;overflow=hidden;rounded=0;" parent="AaScqXBLyXnoLoBDGlaj-1" vertex="1">
          <mxGeometry x="400" y="375" width="190" height="157" as="geometry"/>
        </mxCell>
        <mxCell id="041IJBFGgGHFrr1epc6V-11" value="&lt;p style=&quot;margin: 0px ; margin-top: 4px ; text-align: center&quot;&gt;&lt;b&gt;LoadUtil&lt;/b&gt;&lt;/p&gt;&lt;hr size=&quot;1&quot;&gt;&lt;p style=&quot;margin: 0px ; margin-left: 4px&quot;&gt;+ jarLoadCenter: HashMap&lt;/p&gt;&lt;p style=&quot;margin: 0px ; margin-left: 4px&quot;&gt;+pluginRegisterCenter:Configuration&lt;/p&gt;&lt;hr size=&quot;1&quot;&gt;&lt;p style=&quot;margin: 0px ; margin-left: 4px&quot;&gt;+ loadJobPlugin(): AbstractJopPlugin&lt;/p&gt;&lt;p style=&quot;margin: 0px ; margin-left: 4px&quot;&gt;+ loadTaskPlugin():AbstractTaskPlugin&lt;/p&gt;" style="verticalAlign=top;align=left;overflow=fill;fontSize=12;fontFamily=Helvetica;html=1;" parent="AaScqXBLyXnoLoBDGlaj-1" vertex="1">
          <mxGeometry x="10" y="217.5" width="320" height="155" as="geometry"/>
        </mxCell>
        <mxCell id="041IJBFGgGHFrr1epc6V-12" value="Use" style="endArrow=open;endSize=12;dashed=1;html=1;entryX=1;entryY=0.5;entryDx=0;entryDy=0;exitX=0;exitY=0.5;exitDx=0;exitDy=0;" parent="AaScqXBLyXnoLoBDGlaj-1" source="041IJBFGgGHFrr1epc6V-6" target="041IJBFGgGHFrr1epc6V-11" edge="1">
          <mxGeometry width="160" relative="1" as="geometry">
            <mxPoint x="210" y="460" as="sourcePoint"/>
            <mxPoint x="370" y="460" as="targetPoint"/>
          </mxGeometry>
        </mxCell>
        <mxCell id="S10kIds4V8fyUaOqmN78-0" value="&lt;h1&gt;Job容器&lt;/h1&gt;&lt;p&gt;job实例运行在jobContainer容器中，它是所有任务的master，负责初始化、拆分、调度、运行、回收、监控和汇报&lt;/p&gt;" style="text;html=1;strokeColor=none;fillColor=none;spacing=5;spacingTop=-20;whiteSpace=wrap;overflow=hidden;rounded=0;" vertex="1" parent="AaScqXBLyXnoLoBDGlaj-1">
          <mxGeometry x="605" y="490" width="230" height="170" as="geometry"/>
        </mxCell>
        <mxCell id="S10kIds4V8fyUaOqmN78-1" value="" style="endArrow=open;startArrow=circlePlus;endFill=0;startFill=0;endSize=8;html=1;entryX=0.5;entryY=1;entryDx=0;entryDy=0;exitX=0.5;exitY=0;exitDx=0;exitDy=0;" edge="1" parent="AaScqXBLyXnoLoBDGlaj-1" source="S10kIds4V8fyUaOqmN78-4" target="041IJBFGgGHFrr1epc6V-1">
          <mxGeometry width="160" relative="1" as="geometry">
            <mxPoint x="969.98" y="608.6800000000001" as="sourcePoint"/>
            <mxPoint x="1030" y="690" as="targetPoint"/>
          </mxGeometry>
        </mxCell>
        <mxCell id="S10kIds4V8fyUaOqmN78-3" value="&lt;h1&gt;执行器&lt;/h1&gt;&lt;p&gt;TaskExecutor是一个完整task的执行器,包括1：1的reader和writer&lt;/p&gt;" style="text;html=1;strokeColor=none;fillColor=none;spacing=5;spacingTop=-20;whiteSpace=wrap;overflow=hidden;rounded=0;" vertex="1" parent="AaScqXBLyXnoLoBDGlaj-1">
          <mxGeometry x="840" y="687" width="220" height="140" as="geometry"/>
        </mxCell>
        <mxCell id="S10kIds4V8fyUaOqmN78-4" value="&lt;p style=&quot;margin: 0px ; margin-top: 4px ; text-align: center&quot;&gt;&lt;b&gt;TaskExecutor&lt;/b&gt;&lt;/p&gt;&lt;hr size=&quot;1&quot;&gt;&lt;p style=&quot;margin: 0px ; margin-left: 4px&quot;&gt;+ readerThread: Thread&lt;/p&gt;&lt;p style=&quot;margin: 0px ; margin-left: 4px&quot;&gt;+ writerThread:Thread&lt;/p&gt;&lt;p style=&quot;margin: 0px ; margin-left: 4px&quot;&gt;+ readerRunner&lt;/p&gt;&lt;p style=&quot;margin: 0px ; margin-left: 4px&quot;&gt;+ writerRunner&lt;/p&gt;&lt;hr size=&quot;1&quot;&gt;&lt;p style=&quot;margin: 0px ; margin-left: 4px&quot;&gt;+ method(): Type&lt;/p&gt;" style="verticalAlign=top;align=left;overflow=fill;fontSize=12;fontFamily=Helvetica;html=1;" vertex="1" parent="AaScqXBLyXnoLoBDGlaj-1">
          <mxGeometry x="840" y="530" width="220" height="130" as="geometry"/>
        </mxCell>
        <mxCell id="S10kIds4V8fyUaOqmN78-6" value="&lt;p style=&quot;margin: 0px ; margin-top: 4px ; text-align: center&quot;&gt;&lt;b&gt;&amp;lt;&amp;lt;abstract&amp;gt;&amp;gt;&lt;/b&gt;&lt;/p&gt;&lt;p style=&quot;margin: 0px ; margin-top: 4px ; text-align: center&quot;&gt;&lt;b&gt;AbstractRunner&lt;br&gt;&lt;/b&gt;&lt;/p&gt;&lt;hr size=&quot;1&quot;&gt;&lt;div style=&quot;height: 2px&quot;&gt;&lt;/div&gt;" style="verticalAlign=top;align=left;overflow=fill;fontSize=12;fontFamily=Helvetica;html=1;" vertex="1" parent="AaScqXBLyXnoLoBDGlaj-1">
          <mxGeometry x="1230" y="380.5" width="170" height="70" as="geometry"/>
        </mxCell>
        <mxCell id="S10kIds4V8fyUaOqmN78-7" value="&lt;p style=&quot;margin: 0px ; margin-top: 4px ; text-align: center&quot;&gt;&lt;b&gt;ReaderRuner&lt;/b&gt;&lt;/p&gt;" style="verticalAlign=top;align=left;overflow=fill;fontSize=12;fontFamily=Helvetica;html=1;" vertex="1" parent="AaScqXBLyXnoLoBDGlaj-1">
          <mxGeometry x="1160" y="558" width="140" height="42" as="geometry"/>
        </mxCell>
        <mxCell id="S10kIds4V8fyUaOqmN78-8" value="&lt;p style=&quot;margin: 0px ; margin-top: 4px ; text-align: center&quot;&gt;&lt;b&gt;WriterRunner&lt;/b&gt;&lt;/p&gt;" style="verticalAlign=top;align=left;overflow=fill;fontSize=12;fontFamily=Helvetica;html=1;" vertex="1" parent="AaScqXBLyXnoLoBDGlaj-1">
          <mxGeometry x="1350" y="610" width="180" height="42" as="geometry"/>
        </mxCell>
        <mxCell id="S10kIds4V8fyUaOqmN78-9" value="Extends" style="endArrow=block;endSize=16;endFill=0;html=1;entryX=0.5;entryY=1;entryDx=0;entryDy=0;exitX=0.5;exitY=0;exitDx=0;exitDy=0;" edge="1" source="S10kIds4V8fyUaOqmN78-7" target="S10kIds4V8fyUaOqmN78-6" parent="AaScqXBLyXnoLoBDGlaj-1">
          <mxGeometry width="160" relative="1" as="geometry">
            <mxPoint x="1120" y="560.5" as="sourcePoint"/>
            <mxPoint x="1280" y="560.5" as="targetPoint"/>
          </mxGeometry>
        </mxCell>
        <mxCell id="S10kIds4V8fyUaOqmN78-10" value="Extends" style="endArrow=block;endSize=16;endFill=0;html=1;entryX=0.5;entryY=1;entryDx=0;entryDy=0;exitX=0.5;exitY=0;exitDx=0;exitDy=0;" edge="1" source="S10kIds4V8fyUaOqmN78-8" target="S10kIds4V8fyUaOqmN78-6" parent="AaScqXBLyXnoLoBDGlaj-1">
          <mxGeometry width="160" relative="1" as="geometry">
            <mxPoint x="1470" y="550.5" as="sourcePoint"/>
            <mxPoint x="1630" y="550.5" as="targetPoint"/>
          </mxGeometry>
        </mxCell>
        <mxCell id="S10kIds4V8fyUaOqmN78-11" value="Use" style="endArrow=open;endSize=12;dashed=1;html=1;exitX=1;exitY=0.5;exitDx=0;exitDy=0;entryX=0;entryY=0.5;entryDx=0;entryDy=0;" edge="1" parent="AaScqXBLyXnoLoBDGlaj-1" source="S10kIds4V8fyUaOqmN78-4" target="S10kIds4V8fyUaOqmN78-7">
          <mxGeometry width="160" relative="1" as="geometry">
            <mxPoint x="1080" y="640" as="sourcePoint"/>
            <mxPoint x="1240" y="640" as="targetPoint"/>
          </mxGeometry>
        </mxCell>
        <mxCell id="S10kIds4V8fyUaOqmN78-12" value="Use" style="endArrow=open;endSize=12;dashed=1;html=1;exitX=1;exitY=0.75;exitDx=0;exitDy=0;entryX=0;entryY=0.5;entryDx=0;entryDy=0;" edge="1" parent="AaScqXBLyXnoLoBDGlaj-1" source="S10kIds4V8fyUaOqmN78-4" target="S10kIds4V8fyUaOqmN78-8">
          <mxGeometry width="160" relative="1" as="geometry">
            <mxPoint x="1070" y="640" as="sourcePoint"/>
            <mxPoint x="1230" y="640" as="targetPoint"/>
          </mxGeometry>
        </mxCell>
      </root>
    </mxGraphModel>
  </diagram>
</mxfile>
